<svg width="14" height="14" viewBox="0 0 14 14" fill="none" xmlns="http://www.w3.org/2000/svg">
<path d="M6.99992 13.6667C3.31802 13.6667 0.333252 10.6819 0.333252 7.00001C0.333252 3.31811 3.31802 0.333344 6.99992 0.333344C10.6818 0.333344 13.6666 3.31811 13.6666 7.00001C13.6625 10.6802 10.6801 13.6626 6.99992 13.6667ZM6.99992 1.66668C4.0544 1.66668 1.66659 4.05449 1.66659 7.00001C1.66659 9.94553 4.0544 12.3333 6.99992 12.3333C9.94544 12.3333 12.3333 9.94553 12.3333 7.00001C12.3299 4.05586 9.94407 1.66998 6.99992 1.66668ZM6.96659 9.33334L3.66659 6.03334L4.60925 5.09068L6.96659 7.44734L9.32392 5.09068L10.2666 6.03334L6.96659 9.33334Z" fill="#000000"/>
</svg>
